<svg xmlns="http://www.w3.org/2000/svg" xmlns:xlink="http://www.w3.org/1999/xlink" width="188" zoomAndPan="magnify" viewBox="0 0 141.75 141.749996" height="188" preserveAspectRatio="xMidYMid meet" version="1.0"><defs><g/><clipPath id="e4be206b01"><path d="M 3 31 L 90 31 L 90 139 L 3 139 Z M 3 31 " clip-rule="nonzero"/></clipPath><clipPath id="0ba47204c7"><path d="M 146.847656 7.5 L 137.882812 143.464844 L -5.550781 134.007812 L 3.410156 -1.957031 Z M 146.847656 7.5 " clip-rule="nonzero"/></clipPath><clipPath id="e029dc8830"><path d="M 146.847656 7.5 L 137.882812 143.464844 L -5.550781 134.007812 L 3.410156 -1.957031 Z M 146.847656 7.5 " clip-rule="nonzero"/></clipPath><clipPath id="4370ee12b1"><path d="M 20 4 L 54 4 L 54 29 L 20 29 Z M 20 4 " clip-rule="nonzero"/></clipPath><clipPath id="0e8efe8c95"><path d="M 146.847656 7.5 L 137.882812 143.464844 L -5.550781 134.007812 L 3.410156 -1.957031 Z M 146.847656 7.5 " clip-rule="nonzero"/></clipPath><clipPath id="01c5126d78"><path d="M 146.847656 7.5 L 137.882812 143.464844 L -5.550781 134.007812 L 3.410156 -1.957031 Z M 146.847656 7.5 " clip-rule="nonzero"/></clipPath><clipPath id="d039472de7"><path d="M 11 38 L 18 38 L 18 48 L 11 48 Z M 11 38 " clip-rule="nonzero"/></clipPath><clipPath id="73d2298e72"><path d="M 146.847656 7.5 L 137.882812 143.464844 L -5.550781 134.007812 L 3.410156 -1.957031 Z M 146.847656 7.5 " clip-rule="nonzero"/></clipPath><clipPath id="b8082c016e"><path d="M 146.847656 7.5 L 137.882812 143.464844 L -5.550781 134.007812 L 3.410156 -1.957031 Z M 146.847656 7.5 " clip-rule="nonzero"/></clipPath><clipPath id="c025f4db7d"><path d="M 18 14 L 24 14 L 24 25 L 18 25 Z M 18 14 " clip-rule="nonzero"/></clipPath><clipPath id="fec4001ab7"><path d="M 146.847656 7.5 L 137.882812 143.464844 L -5.550781 134.007812 L 3.410156 -1.957031 Z M 146.847656 7.5 " clip-rule="nonzero"/></clipPath><clipPath id="83b9d4a0f8"><path d="M 146.847656 7.5 L 137.882812 143.464844 L -5.550781 134.007812 L 3.410156 -1.957031 Z M 146.847656 7.5 " clip-rule="nonzero"/></clipPath><clipPath id="367ea579a0"><path d="M 11 16 L 17 16 L 17 25 L 11 25 Z M 11 16 " clip-rule="nonzero"/></clipPath><clipPath id="ba144e2272"><path d="M 146.847656 7.5 L 137.882812 143.464844 L -5.550781 134.007812 L 3.410156 -1.957031 Z M 146.847656 7.5 " clip-rule="nonzero"/></clipPath><clipPath id="7e7b897e65"><path d="M 146.847656 7.5 L 137.882812 143.464844 L -5.550781 134.007812 L 3.410156 -1.957031 Z M 146.847656 7.5 " clip-rule="nonzero"/></clipPath><clipPath id="dc44a837de"><path d="M 60 2 L 139 2 L 139 105 L 60 105 Z M 60 2 " clip-rule="nonzero"/></clipPath><clipPath id="a8dee94ca4"><path d="M 146.847656 7.5 L 137.882812 143.464844 L -5.550781 134.007812 L 3.410156 -1.957031 Z M 146.847656 7.5 " clip-rule="nonzero"/></clipPath><clipPath id="84ccd67d67"><path d="M 146.847656 7.5 L 137.882812 143.464844 L -5.550781 134.007812 L 3.410156 -1.957031 Z M 146.847656 7.5 " clip-rule="nonzero"/></clipPath><clipPath id="75a4922a1b"><path d="M 11 25 L 17 25 L 17 32 L 11 32 Z M 11 25 " clip-rule="nonzero"/></clipPath><clipPath id="23c483308f"><path d="M 146.847656 7.5 L 137.882812 143.464844 L -5.550781 134.007812 L 3.410156 -1.957031 Z M 146.847656 7.5 " clip-rule="nonzero"/></clipPath><clipPath id="b066a95ba4"><path d="M 146.847656 7.5 L 137.882812 143.464844 L -5.550781 134.007812 L 3.410156 -1.957031 Z M 146.847656 7.5 " clip-rule="nonzero"/></clipPath><clipPath id="308f878205"><path d="M 18 32 L 23 32 L 23 39 L 18 39 Z M 18 32 " clip-rule="nonzero"/></clipPath><clipPath id="837faa742a"><path d="M 146.847656 7.5 L 137.882812 143.464844 L -5.550781 134.007812 L 3.410156 -1.957031 Z M 146.847656 7.5 " clip-rule="nonzero"/></clipPath><clipPath id="9a96b3fb30"><path d="M 146.847656 7.5 L 137.882812 143.464844 L -5.550781 134.007812 L 3.410156 -1.957031 Z M 146.847656 7.5 " clip-rule="nonzero"/></clipPath><clipPath id="03fa016b57"><path d="M 19 29 L 27 29 L 27 35 L 19 35 Z M 19 29 " clip-rule="nonzero"/></clipPath><clipPath id="7d4b191a2d"><path d="M 146.847656 7.5 L 137.882812 143.464844 L -5.550781 134.007812 L 3.410156 -1.957031 Z M 146.847656 7.5 " clip-rule="nonzero"/></clipPath><clipPath id="9473a0f363"><path d="M 146.847656 7.5 L 137.882812 143.464844 L -5.550781 134.007812 L 3.410156 -1.957031 Z M 146.847656 7.5 " clip-rule="nonzero"/></clipPath><clipPath id="187f4b29d6"><path d="M 16 24 L 21 24 L 21 31 L 16 31 Z M 16 24 " clip-rule="nonzero"/></clipPath><clipPath id="8f4b2d8903"><path d="M 146.847656 7.5 L 137.882812 143.464844 L -5.550781 134.007812 L 3.410156 -1.957031 Z M 146.847656 7.5 " clip-rule="nonzero"/></clipPath><clipPath id="3eaa37afa9"><path d="M 146.847656 7.5 L 137.882812 143.464844 L -5.550781 134.007812 L 3.410156 -1.957031 Z M 146.847656 7.5 " clip-rule="nonzero"/></clipPath><clipPath id="f787fb2788"><path d="M 17 28 L 29 28 L 29 33 L 17 33 Z M 17 28 " clip-rule="nonzero"/></clipPath><clipPath id="f93458ab81"><path d="M 146.847656 7.5 L 137.882812 143.464844 L -5.550781 134.007812 L 3.410156 -1.957031 Z M 146.847656 7.5 " clip-rule="nonzero"/></clipPath><clipPath id="94596f6c17"><path d="M 146.847656 7.5 L 137.882812 143.464844 L -5.550781 134.007812 L 3.410156 -1.957031 Z M 146.847656 7.5 " clip-rule="nonzero"/></clipPath><clipPath id="5e5b1459d0"><path d="M 50 10 L 54 10 L 54 13 L 50 13 Z M 50 10 " clip-rule="nonzero"/></clipPath><clipPath id="ca0b65487c"><path d="M 146.847656 7.5 L 137.882812 143.464844 L -5.550781 134.007812 L 3.410156 -1.957031 Z M 146.847656 7.5 " clip-rule="nonzero"/></clipPath><clipPath id="97b95e626f"><path d="M 146.847656 7.5 L 137.882812 143.464844 L -5.550781 134.007812 L 3.410156 -1.957031 Z M 146.847656 7.5 " clip-rule="nonzero"/></clipPath><clipPath id="75ca65fff1"><path d="M 46 2 L 49 2 L 49 6 L 46 6 Z M 46 2 " clip-rule="nonzero"/></clipPath><clipPath id="18898b2fef"><path d="M 146.847656 7.5 L 137.882812 143.464844 L -5.550781 134.007812 L 3.410156 -1.957031 Z M 146.847656 7.5 " clip-rule="nonzero"/></clipPath><clipPath id="a7bd35d74f"><path d="M 146.847656 7.5 L 137.882812 143.464844 L -5.550781 134.007812 L 3.410156 -1.957031 Z M 146.847656 7.5 " clip-rule="nonzero"/></clipPath><clipPath id="5760c6f39c"><path d="M 23 27 L 25 27 L 25 29 L 23 29 Z M 23 27 " clip-rule="nonzero"/></clipPath><clipPath id="a99ad8def4"><path d="M 146.847656 7.5 L 137.882812 143.464844 L -5.550781 134.007812 L 3.410156 -1.957031 Z M 146.847656 7.5 " clip-rule="nonzero"/></clipPath><clipPath id="9d3eac873f"><path d="M 146.847656 7.5 L 137.882812 143.464844 L -5.550781 134.007812 L 3.410156 -1.957031 Z M 146.847656 7.5 " clip-rule="nonzero"/></clipPath><clipPath id="9bc7f21a85"><path d="M 25 29 L 27 29 L 27 31 L 25 31 Z M 25 29 " clip-rule="nonzero"/></clipPath><clipPath id="3518336eb0"><path d="M 146.847656 7.5 L 137.882812 143.464844 L -5.550781 134.007812 L 3.410156 -1.957031 Z M 146.847656 7.5 " clip-rule="nonzero"/></clipPath><clipPath id="b2d8c6401b"><path d="M 146.847656 7.5 L 137.882812 143.464844 L -5.550781 134.007812 L 3.410156 -1.957031 Z M 146.847656 7.5 " clip-rule="nonzero"/></clipPath><clipPath id="ef18f3fac6"><path d="M 25 27 L 27 27 L 27 29 L 25 29 Z M 25 27 " clip-rule="nonzero"/></clipPath><clipPath id="fc9aee1f7a"><path d="M 146.847656 7.5 L 137.882812 143.464844 L -5.550781 134.007812 L 3.410156 -1.957031 Z M 146.847656 7.5 " clip-rule="nonzero"/></clipPath><clipPath id="5146ab70fe"><path d="M 146.847656 7.5 L 137.882812 143.464844 L -5.550781 134.007812 L 3.410156 -1.957031 Z M 146.847656 7.5 " clip-rule="nonzero"/></clipPath><clipPath id="cc4e2bced2"><path d="M 96 108 L 127 108 L 127 135 L 96 135 Z M 96 108 " clip-rule="nonzero"/></clipPath><clipPath id="9024af4441"><path d="M 146.847656 7.5 L 137.882812 143.464844 L -5.550781 134.007812 L 3.410156 -1.957031 Z M 146.847656 7.5 " clip-rule="nonzero"/></clipPath><clipPath id="1b9a285d7c"><path d="M 146.847656 7.5 L 137.882812 143.464844 L -5.550781 134.007812 L 3.410156 -1.957031 Z M 146.847656 7.5 " clip-rule="nonzero"/></clipPath><clipPath id="d602e69efc"><path d="M 128 88 L 134 88 L 134 98 L 128 98 Z M 128 88 " clip-rule="nonzero"/></clipPath><clipPath id="db236efde9"><path d="M 146.847656 7.5 L 137.882812 143.464844 L -5.550781 134.007812 L 3.410156 -1.957031 Z M 146.847656 7.5 " clip-rule="nonzero"/></clipPath><clipPath id="583224052c"><path d="M 146.847656 7.5 L 137.882812 143.464844 L -5.550781 134.007812 L 3.410156 -1.957031 Z M 146.847656 7.5 " clip-rule="nonzero"/></clipPath><clipPath id="81138f6af1"><path d="M 124 112 L 129 112 L 129 123 L 124 123 Z M 124 112 " clip-rule="nonzero"/></clipPath><clipPath id="a8caf8486d"><path d="M 146.847656 7.5 L 137.882812 143.464844 L -5.550781 134.007812 L 3.410156 -1.957031 Z M 146.847656 7.5 " clip-rule="nonzero"/></clipPath><clipPath id="598fb928bd"><path d="M 146.847656 7.5 L 137.882812 143.464844 L -5.550781 134.007812 L 3.410156 -1.957031 Z M 146.847656 7.5 " clip-rule="nonzero"/></clipPath><clipPath id="cf1dc61576"><path d="M 130 111 L 137 111 L 137 120 L 130 120 Z M 130 111 " clip-rule="nonzero"/></clipPath><clipPath id="fee4c3de85"><path d="M 146.847656 7.5 L 137.882812 143.464844 L -5.550781 134.007812 L 3.410156 -1.957031 Z M 146.847656 7.5 " clip-rule="nonzero"/></clipPath><clipPath id="5bf9d0a808"><path d="M 146.847656 7.5 L 137.882812 143.464844 L -5.550781 134.007812 L 3.410156 -1.957031 Z M 146.847656 7.5 " clip-rule="nonzero"/></clipPath><clipPath id="3852e6fac0"><path d="M 129 104 L 136 104 L 136 110 L 129 110 Z M 129 104 " clip-rule="nonzero"/></clipPath><clipPath id="5bb2f0d900"><path d="M 146.847656 7.5 L 137.882812 143.464844 L -5.550781 134.007812 L 3.410156 -1.957031 Z M 146.847656 7.5 " clip-rule="nonzero"/></clipPath><clipPath id="14c4bc88c4"><path d="M 146.847656 7.5 L 137.882812 143.464844 L -5.550781 134.007812 L 3.410156 -1.957031 Z M 146.847656 7.5 " clip-rule="nonzero"/></clipPath><clipPath id="ab32bb0d56"><path d="M 123 97 L 129 97 L 129 105 L 123 105 Z M 123 97 " clip-rule="nonzero"/></clipPath><clipPath id="c72e0e49f9"><path d="M 146.847656 7.5 L 137.882812 143.464844 L -5.550781 134.007812 L 3.410156 -1.957031 Z M 146.847656 7.5 " clip-rule="nonzero"/></clipPath><clipPath id="4eb3d0891b"><path d="M 146.847656 7.5 L 137.882812 143.464844 L -5.550781 134.007812 L 3.410156 -1.957031 Z M 146.847656 7.5 " clip-rule="nonzero"/></clipPath><clipPath id="acc774b264"><path d="M 120 102 L 127 102 L 127 108 L 120 108 Z M 120 102 " clip-rule="nonzero"/></clipPath><clipPath id="d842773b4e"><path d="M 146.847656 7.5 L 137.882812 143.464844 L -5.550781 134.007812 L 3.410156 -1.957031 Z M 146.847656 7.5 " clip-rule="nonzero"/></clipPath><clipPath id="27cdcb7738"><path d="M 146.847656 7.5 L 137.882812 143.464844 L -5.550781 134.007812 L 3.410156 -1.957031 Z M 146.847656 7.5 " clip-rule="nonzero"/></clipPath><clipPath id="a27194bff2"><path d="M 126 106 L 131 106 L 131 113 L 126 113 Z M 126 106 " clip-rule="nonzero"/></clipPath><clipPath id="2d425d845e"><path d="M 146.847656 7.5 L 137.882812 143.464844 L -5.550781 134.007812 L 3.410156 -1.957031 Z M 146.847656 7.5 " clip-rule="nonzero"/></clipPath><clipPath id="2caac2e3af"><path d="M 146.847656 7.5 L 137.882812 143.464844 L -5.550781 134.007812 L 3.410156 -1.957031 Z M 146.847656 7.5 " clip-rule="nonzero"/></clipPath><clipPath id="030ef2be6c"><path d="M 118 104 L 130 104 L 130 110 L 118 110 Z M 118 104 " clip-rule="nonzero"/></clipPath><clipPath id="329937d2f1"><path d="M 146.847656 7.5 L 137.882812 143.464844 L -5.550781 134.007812 L 3.410156 -1.957031 Z M 146.847656 7.5 " clip-rule="nonzero"/></clipPath><clipPath id="58b28aae87"><path d="M 146.847656 7.5 L 137.882812 143.464844 L -5.550781 134.007812 L 3.410156 -1.957031 Z M 146.847656 7.5 " clip-rule="nonzero"/></clipPath><clipPath id="c606131715"><path d="M 101 134 L 104 134 L 104 137 L 101 137 Z M 101 134 " clip-rule="nonzero"/></clipPath><clipPath id="665cc1b7f0"><path d="M 146.847656 7.5 L 137.882812 143.464844 L -5.550781 134.007812 L 3.410156 -1.957031 Z M 146.847656 7.5 " clip-rule="nonzero"/></clipPath><clipPath id="e91e673ec0"><path d="M 146.847656 7.5 L 137.882812 143.464844 L -5.550781 134.007812 L 3.410156 -1.957031 Z M 146.847656 7.5 " clip-rule="nonzero"/></clipPath><clipPath id="13104e0f23"><path d="M 95 126 L 99 126 L 99 130 L 95 130 Z M 95 126 " clip-rule="nonzero"/></clipPath><clipPath id="bb363cbc62"><path d="M 146.847656 7.5 L 137.882812 143.464844 L -5.550781 134.007812 L 3.410156 -1.957031 Z M 146.847656 7.5 " clip-rule="nonzero"/></clipPath><clipPath id="bde9023252"><path d="M 146.847656 7.5 L 137.882812 143.464844 L -5.550781 134.007812 L 3.410156 -1.957031 Z M 146.847656 7.5 " clip-rule="nonzero"/></clipPath><clipPath id="1a6f519155"><path d="M 122 108 L 124 108 L 124 110 L 122 110 Z M 122 108 " clip-rule="nonzero"/></clipPath><clipPath id="8225c36cc1"><path d="M 146.847656 7.5 L 137.882812 143.464844 L -5.550781 134.007812 L 3.410156 -1.957031 Z M 146.847656 7.5 " clip-rule="nonzero"/></clipPath><clipPath id="fbcbe3548a"><path d="M 146.847656 7.5 L 137.882812 143.464844 L -5.550781 134.007812 L 3.410156 -1.957031 Z M 146.847656 7.5 " clip-rule="nonzero"/></clipPath><clipPath id="0f5b225bea"><path d="M 120 108 L 122 108 L 122 110 L 120 110 Z M 120 108 " clip-rule="nonzero"/></clipPath><clipPath id="1d0ad58448"><path d="M 146.847656 7.5 L 137.882812 143.464844 L -5.550781 134.007812 L 3.410156 -1.957031 Z M 146.847656 7.5 " clip-rule="nonzero"/></clipPath><clipPath id="3c282c63e6"><path d="M 146.847656 7.5 L 137.882812 143.464844 L -5.550781 134.007812 L 3.410156 -1.957031 Z M 146.847656 7.5 " clip-rule="nonzero"/></clipPath><clipPath id="5fe07be7a6"><path d="M 120 106 L 122 106 L 122 108 L 120 108 Z M 120 106 " clip-rule="nonzero"/></clipPath><clipPath id="bd58cdbcc1"><path d="M 146.847656 7.5 L 137.882812 143.464844 L -5.550781 134.007812 L 3.410156 -1.957031 Z M 146.847656 7.5 " clip-rule="nonzero"/></clipPath><clipPath id="c33588ac37"><path d="M 146.847656 7.5 L 137.882812 143.464844 L -5.550781 134.007812 L 3.410156 -1.957031 Z M 146.847656 7.5 " clip-rule="nonzero"/></clipPath></defs><g clip-path="url(#e4be206b01)"><g clip-path="url(#0ba47204c7)"><g clip-path="url(#e029dc8830)"><path fill="#ff3131" d="M 84.527344 137.222656 C 84.722656 137.605469 85.003906 137.914062 85.363281 138.152344 C 85.726562 138.390625 86.121094 138.523438 86.550781 138.550781 C 87.996094 138.628906 89.253906 137.585938 89.28125 136.171875 C 89.308594 134.679688 88.5 133.601562 86.945312 133.460938 C 86.609375 133.433594 86.28125 133.46875 85.960938 133.570312 C 85.640625 133.671875 85.351562 133.832031 85.09375 134.046875 C 84.835938 134.265625 84.632812 134.523438 84.476562 134.824219 C 84.324219 135.121094 84.234375 135.441406 84.207031 135.777344 C 84.1875 136.097656 84.222656 136.414062 84.316406 136.722656 C 84.210938 136.742188 84.105469 136.761719 84 136.78125 C 82.171875 137.101562 80.335938 137.425781 78.492188 137.648438 C 76.945312 137.835938 75.386719 137.917969 73.828125 137.972656 C 72.050781 138.039062 70.265625 138.089844 68.488281 138.019531 C 66.691406 137.949219 64.894531 137.765625 63.105469 137.554688 C 61.472656 137.359375 59.84375 137.109375 58.230469 136.789062 C 56.347656 136.453125 54.492188 136.019531 52.65625 135.476562 C 49.917969 134.605469 47.1875 133.667969 44.539062 132.550781 C 37.769531 129.664062 31.675781 125.734375 26.253906 120.757812 C 23.242188 118.023438 20.503906 115.03125 18.046875 111.785156 C 14.871094 107.601562 12.226562 103.109375 10.105469 98.300781 C 8.082031 93.722656 6.605469 88.96875 5.664062 84.050781 C 5.125 81.375 4.789062 78.671875 4.660156 75.945312 C 4.59375 74.117188 4.445312 72.289062 4.480469 70.464844 C 4.519531 68.378906 4.667969 66.289062 4.875 64.210938 C 5.027344 62.660156 5.335938 61.125 5.589844 59.585938 C 5.746094 58.640625 5.890625 57.695312 6.117188 56.769531 C 6.460938 55.359375 6.828125 53.949219 7.265625 52.566406 C 7.867188 50.660156 8.480469 48.75 9.207031 46.886719 C 10.46875 43.660156 11.992188 40.558594 13.777344 37.589844 C 13.949219 37.714844 14.136719 37.808594 14.34375 37.867188 C 14.546875 37.925781 14.757812 37.945312 14.96875 37.933594 C 15.183594 37.917969 15.386719 37.867188 15.582031 37.78125 C 15.777344 37.695312 15.953125 37.582031 16.109375 37.433594 C 16.902344 36.726562 17.378906 35.847656 17.535156 34.796875 C 17.722656 33.972656 17.5625 33.214844 17.058594 32.535156 C 16.183594 34.113281 14.949219 35.300781 13.699219 36.46875 L 13.535156 36.324219 L 16.617188 31.925781 C 14.828125 31.394531 12.21875 33.242188 11.863281 35.125 C 11.6875 36.046875 11.996094 36.539062 12.855469 36.886719 C 13.070312 36.964844 13.261719 37.082031 13.433594 37.234375 C -0.519531 60.351562 0.0195312 92.882812 21.289062 116.488281 C 32.953125 129.433594 47.667969 136.628906 65.007812 138.363281 C 71.574219 139.015625 78.082031 138.632812 84.527344 137.222656 Z M 84.527344 137.222656 " fill-opacity="1" fill-rule="nonzero"/></g></g></g><g clip-path="url(#4370ee12b1)"><g clip-path="url(#0e8efe8c95)"><g clip-path="url(#01c5126d78)"><path fill="#ff3131" d="M 28.027344 19.882812 C 28.109375 20.144531 28.039062 20.355469 27.820312 20.515625 C 26.304688 21.851562 24.753906 23.148438 23.300781 24.546875 C 22.25 25.558594 21.324219 26.707031 20.355469 27.804688 C 20.25 27.964844 20.164062 28.136719 20.105469 28.320312 L 20.285156 28.421875 C 22.664062 25.410156 25.484375 22.871094 28.355469 20.554688 C 28.765625 20.882812 29.195312 21.179688 29.648438 21.445312 C 32.140625 22.601562 34.757812 23.246094 37.503906 23.375 C 38.210938 23.390625 38.914062 23.332031 39.605469 23.191406 C 39.859375 23.132812 40.03125 22.980469 40.125 22.734375 C 40.125 22.464844 40.023438 22.238281 39.816406 22.058594 C 39.480469 21.773438 39.109375 21.546875 38.703125 21.371094 C 35.867188 20.128906 32.894531 19.550781 29.796875 19.632812 C 29.757812 19.632812 29.71875 19.601562 29.59375 19.542969 L 32.210938 17.546875 C 32.636719 17.835938 33.082031 18.089844 33.546875 18.3125 C 36.144531 19.265625 38.824219 19.691406 41.585938 19.59375 C 42.257812 19.554688 42.921875 19.445312 43.570312 19.257812 C 43.785156 19.203125 44.089844 18.933594 44.101562 18.746094 C 44.070312 18.460938 43.9375 18.234375 43.703125 18.066406 C 43.375 17.824219 43.015625 17.640625 42.628906 17.515625 C 39.929688 16.597656 37.160156 16.230469 34.3125 16.40625 C 34.195312 16.414062 34.070312 16.394531 33.816406 16.378906 C 34.699219 15.78125 35.46875 15.246094 36.265625 14.75 C 36.386719 14.675781 36.652344 14.765625 36.824219 14.84375 C 37.21875 15.023438 37.570312 15.328125 37.972656 15.425781 C 40.519531 15.996094 43.082031 16.085938 45.660156 15.6875 C 46.503906 15.535156 47.328125 15.300781 48.125 14.984375 C 48.375 14.867188 48.519531 14.671875 48.5625 14.398438 C 48.5 14.132812 48.34375 13.9375 48.097656 13.816406 C 47.6875 13.613281 47.257812 13.46875 46.8125 13.382812 C 44.25 12.910156 41.683594 12.894531 39.117188 13.335938 C 38.964844 13.359375 38.8125 13.375 38.578125 13.40625 C 38.675781 13.273438 38.695312 13.21875 38.730469 13.195312 C 39.949219 12.480469 41.164062 11.761719 42.390625 11.0625 C 42.480469 11.007812 42.636719 11.0625 42.761719 11.074219 C 43.136719 11.109375 43.535156 11.25 43.886719 11.175781 C 46.703125 10.578125 49.289062 9.449219 51.644531 7.792969 C 52.207031 7.390625 52.707031 6.917969 53.140625 6.378906 C 53.523438 5.917969 53.316406 5.457031 52.730469 5.410156 C 52.238281 5.375 51.757812 5.414062 51.28125 5.53125 C 48.972656 6.101562 46.832031 7.039062 44.851562 8.351562 C 44.039062 8.863281 43.320312 9.484375 42.691406 10.210938 C 42.410156 10.59375 42.066406 10.90625 41.660156 11.148438 C 41.246094 11.375 40.832031 11.601562 40.421875 11.824219 C 40.203125 11.945312 39.984375 12.058594 39.765625 12.175781 C 39.765625 12.046875 39.804688 11.9375 39.890625 11.84375 C 41.089844 10.394531 42.089844 8.820312 42.890625 7.117188 C 43.179688 6.417969 43.402344 5.699219 43.554688 4.957031 C 43.589844 4.699219 43.511719 4.484375 43.316406 4.3125 C 43.058594 4.222656 42.8125 4.238281 42.570312 4.359375 C 42.21875 4.535156 41.90625 4.757812 41.628906 5.035156 C 39.550781 7.0625 37.960938 9.425781 36.867188 12.117188 C 36.644531 12.671875 36.664062 13.324219 36.546875 13.925781 C 36.511719 14.078125 36.433594 14.207031 36.308594 14.304688 C 35.671875 14.746094 35.027344 15.167969 34.378906 15.59375 C 34.253906 15.667969 34.125 15.734375 33.992188 15.792969 C 34.5 14.789062 35.023438 13.847656 35.460938 12.867188 C 36.230469 11.136719 36.914062 9.375 37.039062 7.457031 C 37.066406 7.019531 37.167969 6.464844 36.648438 6.25 C 36.128906 6.03125 35.796875 6.488281 35.53125 6.839844 C 33.414062 9.589844 32.15625 12.6875 31.757812 16.132812 C 31.773438 16.433594 31.824219 16.726562 31.910156 17.015625 C 31.925781 17.128906 31.9375 17.3125 31.875 17.363281 C 31.292969 17.808594 30.695312 18.234375 30.101562 18.664062 L 30.015625 18.59375 L 30.242188 18.003906 C 31.066406 15.921875 31.574219 13.761719 31.757812 11.527344 C 31.789062 10.820312 31.75 10.117188 31.640625 9.417969 C 31.613281 9.199219 31.367188 8.871094 31.183594 8.84375 C 30.894531 8.851562 30.65625 8.960938 30.46875 9.175781 C 30.191406 9.496094 29.960938 9.847656 29.785156 10.230469 C 28.707031 12.550781 28.074219 14.984375 27.878906 17.53125 C 27.835938 18.324219 27.886719 19.105469 28.027344 19.882812 Z M 28.027344 19.882812 " fill-opacity="1" fill-rule="nonzero"/></g></g></g><g clip-path="url(#d039472de7)"><g clip-path="url(#73d2298e72)"><g clip-path="url(#b8082c016e)"><path fill="#ff3131" d="M 12.574219 41.601562 C 12.238281 43.59375 12.082031 45.617188 11.832031 47.792969 C 12.375 47.566406 12.902344 47.308594 13.414062 47.015625 C 14.914062 45.980469 16.078125 44.652344 16.90625 43.03125 C 17.347656 42.234375 17.574219 41.378906 17.585938 40.46875 C 17.597656 40.136719 17.53125 39.820312 17.386719 39.523438 C 17.246094 39.222656 17.039062 38.972656 16.773438 38.773438 C 16.394531 40.9375 15.246094 42.597656 13.835938 44.117188 C 14.503906 42.246094 15.519531 40.511719 16.011719 38.5625 C 15.554688 38.382812 15.125 38.425781 14.714844 38.695312 C 14.144531 38.976562 13.667969 39.371094 13.289062 39.886719 C 12.910156 40.398438 12.671875 40.972656 12.574219 41.601562 Z M 12.574219 41.601562 " fill-opacity="1" fill-rule="nonzero"/></g></g></g><g clip-path="url(#c025f4db7d)"><g clip-path="url(#fec4001ab7)"><g clip-path="url(#83b9d4a0f8)"><path fill="#ff3131" d="M 19.367188 23.171875 C 19.582031 23.453125 19.824219 23.710938 20.085938 23.945312 L 20.351562 23.863281 L 21.335938 18.457031 C 21.679688 20.347656 21.769531 22.210938 21.03125 24.074219 C 21.394531 23.984375 21.773438 23.914062 21.957031 23.6875 C 22.386719 23.214844 22.710938 22.679688 22.933594 22.082031 C 23.238281 21 23.335938 19.898438 23.234375 18.78125 C 23.128906 17.660156 22.828125 16.597656 22.332031 15.589844 C 22.148438 15.269531 21.933594 14.96875 21.691406 14.691406 C 21.347656 15.339844 21.042969 15.910156 20.738281 16.484375 C 20.246094 17.402344 19.6875 18.292969 19.28125 19.246094 C 18.734375 20.542969 18.5625 21.890625 19.367188 23.171875 Z M 19.367188 23.171875 " fill-opacity="1" fill-rule="nonzero"/></g></g></g><g clip-path="url(#367ea579a0)"><g clip-path="url(#ba144e2272)"><g clip-path="url(#7e7b897e65)"><path fill="#ff3131" d="M 13.234375 19.8125 C 14.433594 21.214844 15.441406 22.714844 15.726562 24.664062 C 16.441406 24.101562 16.570312 23.425781 16.476562 22.675781 C 16.230469 20.734375 15.125 19.265625 13.808594 17.929688 C 13.1875 17.253906 12.4375 16.800781 11.554688 16.558594 C 11.59375 17.121094 11.636719 17.628906 11.664062 18.140625 C 11.726562 19.234375 11.71875 20.332031 11.867188 21.410156 C 12.003906 22.453125 12.332031 23.46875 13.179688 24.179688 C 13.683594 24.597656 14.203125 25.085938 15.035156 24.886719 C 14.675781 23.097656 13.753906 21.523438 13.234375 19.8125 Z M 13.234375 19.8125 " fill-opacity="1" fill-rule="nonzero"/></g></g></g><g clip-path="url(#dc44a837de)"><g clip-path="url(#a8dee94ca4)"><g clip-path="url(#84ccd67d67)"><path fill="#ff3131" d="M 60.296875 4.820312 C 60.242188 6.492188 61.324219 7.464844 62.65625 7.546875 C 62.996094 7.578125 63.328125 7.539062 63.652344 7.433594 C 63.976562 7.328125 64.265625 7.160156 64.519531 6.9375 C 64.773438 6.710938 64.976562 6.445312 65.121094 6.136719 C 65.265625 5.828125 65.34375 5.503906 65.355469 5.164062 C 66.300781 5.101562 67.246094 5.050781 68.191406 5.015625 C 69.765625 4.957031 71.347656 4.859375 72.917969 4.925781 C 74.917969 5.015625 76.910156 5.25 78.90625 5.417969 C 81.300781 5.636719 83.660156 6.042969 85.988281 6.640625 C 87.59375 7.042969 89.210938 7.402344 90.785156 7.898438 C 93.722656 8.816406 96.582031 9.933594 99.367188 11.242188 C 107.136719 14.882812 113.945312 19.847656 119.789062 26.128906 C 124.414062 31.109375 128.195312 36.664062 131.136719 42.792969 C 134.546875 50 136.699219 57.558594 137.339844 65.527344 C 137.496094 67.496094 137.65625 69.476562 137.640625 71.449219 C 137.621094 73.683594 137.414062 75.917969 137.265625 78.152344 C 137.066406 80.855469 136.636719 83.519531 135.976562 86.148438 C 135.523438 87.984375 135.121094 89.84375 134.515625 91.628906 C 133.738281 93.914062 132.816406 96.15625 131.925781 98.402344 C 131.199219 98.054688 130.457031 98.203125 129.824219 98.855469 C 129.09375 99.636719 128.707031 100.5625 128.667969 101.632812 C 128.578125 102.472656 128.8125 103.207031 129.367188 103.84375 C 130.09375 102.195312 131.160156 100.863281 132.3125 99.59375 L 132.484375 99.695312 L 129.855469 104.453125 C 130.183594 104.457031 130.507812 104.433594 130.832031 104.382812 C 131.539062 104.207031 132.167969 103.886719 132.722656 103.414062 C 133.277344 102.945312 133.699219 102.375 133.988281 101.710938 C 134.167969 101.289062 134.257812 100.855469 134.261719 100.398438 C 134.289062 99.714844 133.9375 99.335938 133.277344 99.121094 C 132.953125 99.027344 132.65625 98.882812 132.382812 98.6875 C 132.378906 98.683594 132.371094 98.679688 132.363281 98.675781 C 142.234375 77.617188 141.46875 43.222656 114.050781 20.140625 C 99.976562 8.289062 83.578125 3.332031 65.351562 4.753906 C 65.320312 4.4375 65.230469 4.136719 65.085938 3.855469 C 64.941406 3.570312 64.753906 3.324219 64.515625 3.113281 C 64.277344 2.902344 64.011719 2.742188 63.714844 2.628906 C 63.417969 2.519531 63.109375 2.464844 62.792969 2.46875 C 62.476562 2.472656 62.171875 2.535156 61.875 2.65625 C 61.582031 2.773438 61.320312 2.941406 61.089844 3.160156 C 60.859375 3.375 60.671875 3.628906 60.539062 3.914062 C 60.402344 4.203125 60.320312 4.503906 60.296875 4.820312 Z M 60.296875 4.820312 " fill-opacity="1" fill-rule="nonzero"/></g></g></g><g clip-path="url(#75a4922a1b)"><g clip-path="url(#23c483308f)"><g clip-path="url(#b066a95ba4)"><path fill="#ff3131" d="M 12.949219 28.550781 C 14.445312 28.972656 15.757812 29.714844 16.890625 30.777344 C 16.910156 30.703125 16.917969 30.628906 16.917969 30.554688 C 16.574219 29.316406 16.121094 28.121094 15.253906 27.148438 C 14.722656 26.554688 14.109375 26.046875 13.261719 25.96875 C 12.34375 25.882812 10.9375 27.339844 11.042969 28.261719 C 11.128906 28.917969 11.414062 29.476562 11.898438 29.929688 C 12.726562 30.773438 13.824219 30.988281 14.898438 31.246094 C 15.484375 31.386719 16.078125 31.472656 16.667969 31.585938 L 16.730469 31.417969 Z M 12.949219 28.550781 " fill-opacity="1" fill-rule="nonzero"/></g></g></g><g clip-path="url(#308f878205)"><g clip-path="url(#837faa742a)"><g clip-path="url(#9a96b3fb30)"><path fill="#ff3131" d="M 18.363281 33.019531 C 18.316406 33.71875 18.28125 34.382812 18.226562 35.050781 C 18.15625 35.445312 18.113281 35.847656 18.085938 36.25 C 18.105469 37.042969 18.007812 37.867188 18.65625 38.519531 C 19.101562 38.964844 19.410156 39.054688 19.996094 38.796875 C 20.148438 38.730469 20.3125 38.699219 20.480469 38.699219 C 21.207031 38.703125 21.59375 38.457031 21.882812 37.789062 C 22.066406 37.355469 22.164062 36.902344 22.175781 36.429688 C 22.191406 35.960938 22.125 35.5 21.972656 35.054688 C 21.820312 34.609375 21.59375 34.203125 21.292969 33.839844 C 20.992188 33.476562 20.636719 33.179688 20.230469 32.945312 C 19.871094 32.765625 19.5 32.613281 19.121094 32.480469 L 19.042969 32.601562 C 20.097656 33.839844 20.679688 35.273438 20.800781 36.894531 C 19.746094 35.746094 19.105469 34.34375 18.363281 33.019531 Z M 18.363281 33.019531 " fill-opacity="1" fill-rule="nonzero"/></g></g></g><g clip-path="url(#03fa016b57)"><g clip-path="url(#7d4b191a2d)"><g clip-path="url(#9473a0f363)"><path fill="#ff3131" d="M 24.414062 34.265625 C 25.050781 34.390625 25.507812 34.089844 25.558594 33.453125 C 25.542969 33.234375 25.589844 33.03125 25.695312 32.835938 C 26.351562 32.109375 26.054688 31.304688 25.242188 30.753906 C 24.75 30.402344 24.210938 30.164062 23.621094 30.035156 C 23.035156 29.90625 22.441406 29.898438 21.851562 30.011719 C 21.214844 30.132812 20.550781 30.242188 19.925781 30.789062 C 21.675781 30.726562 23.183594 31.179688 24.644531 31.824219 L 24.609375 32.007812 C 23.023438 31.816406 21.4375 31.628906 19.851562 31.4375 L 19.824219 31.582031 C 20.257812 31.816406 20.707031 32.023438 21.121094 32.289062 C 21.546875 32.558594 21.933594 32.878906 22.339844 33.175781 C 22.980469 33.640625 23.609375 34.105469 24.414062 34.265625 Z M 24.414062 34.265625 " fill-opacity="1" fill-rule="nonzero"/></g></g></g><g clip-path="url(#187f4b29d6)"><g clip-path="url(#8f4b2d8903)"><g clip-path="url(#3eaa37afa9)"><path fill="#ff3131" d="M 17.804688 29.980469 L 18.4375 25.625 C 18.785156 27.132812 18.742188 28.628906 18.296875 30.109375 C 19.238281 29.101562 20.132812 28.078125 20.644531 26.796875 C 20.777344 26.484375 20.855469 26.160156 20.871094 25.824219 C 20.878906 25.085938 20.835938 24.542969 19.789062 24.464844 C 19.574219 24.421875 19.375 24.339844 19.1875 24.222656 C 18.964844 24.089844 18.71875 24.039062 18.457031 24.074219 C 18.199219 24.109375 17.976562 24.222656 17.792969 24.410156 C 17.519531 24.683594 17.316406 25 17.175781 25.359375 C 16.570312 26.980469 17.238281 28.46875 17.804688 29.980469 Z M 17.804688 29.980469 " fill-opacity="1" fill-rule="nonzero"/></g></g></g><g clip-path="url(#f787fb2788)"><g clip-path="url(#f93458ab81)"><g clip-path="url(#94596f6c17)"><path fill="#ff3131" d="M 18.960938 30.039062 C 18.4375 30.347656 17.984375 30.734375 17.601562 31.199219 C 17.46875 31.351562 17.542969 31.777344 17.652344 32.015625 C 17.8125 32.195312 18.011719 32.265625 18.246094 32.226562 C 18.453125 32.183594 18.625 32.085938 18.761719 31.925781 C 18.902344 31.765625 18.976562 31.582031 18.988281 31.371094 C 18.980469 31.179688 19.035156 31.007812 19.148438 30.851562 C 19.261719 30.699219 19.410156 30.59375 19.59375 30.542969 C 20.324219 30.257812 21.046875 29.945312 21.800781 29.730469 C 23.289062 29.320312 24.800781 29.203125 26.332031 29.375 L 26.28125 29.503906 C 26.464844 29.773438 26.59375 30.195312 26.839844 30.28125 C 27.46875 30.496094 28.34375 29.847656 28.414062 29.207031 C 28.414062 29.085938 28.367188 28.984375 28.269531 28.910156 C 27.902344 28.746094 27.742188 28.308594 27.207031 28.304688 C 26.824219 28.300781 26.597656 28.371094 26.507812 28.664062 C 26.402344 28.996094 26.222656 28.972656 25.972656 28.925781 C 24.777344 28.699219 23.574219 28.679688 22.371094 28.871094 C 21.167969 29.0625 20.03125 29.453125 18.960938 30.039062 Z M 18.960938 30.039062 " fill-opacity="1" fill-rule="nonzero"/></g></g></g><g clip-path="url(#5e5b1459d0)"><g clip-path="url(#ca0b65487c)"><g clip-path="url(#97b95e626f)"><path fill="#ff3131" d="M 51.921875 10.605469 C 51.761719 10.59375 51.601562 10.617188 51.449219 10.667969 C 51.296875 10.71875 51.160156 10.796875 51.039062 10.898438 C 50.914062 11.003906 50.816406 11.125 50.738281 11.265625 C 50.660156 11.40625 50.613281 11.558594 50.59375 11.71875 C 50.582031 11.875 50.601562 12.027344 50.648438 12.179688 C 50.699219 12.328125 50.773438 12.460938 50.875 12.582031 C 50.980469 12.699219 51.101562 12.796875 51.242188 12.867188 C 51.382812 12.9375 51.53125 12.980469 51.6875 12.992188 C 51.847656 13.007812 52.003906 12.996094 52.160156 12.953125 C 52.316406 12.90625 52.453125 12.835938 52.582031 12.734375 C 52.707031 12.632812 52.808594 12.511719 52.882812 12.371094 C 52.960938 12.226562 53.007812 12.078125 53.023438 11.917969 C 53.039062 11.757812 53.023438 11.597656 52.972656 11.445312 C 52.925781 11.292969 52.851562 11.152344 52.746094 11.027344 C 52.644531 10.90625 52.519531 10.808594 52.378906 10.734375 C 52.234375 10.660156 52.082031 10.617188 51.921875 10.605469 Z M 51.921875 10.605469 " fill-opacity="1" fill-rule="nonzero"/></g></g></g><g clip-path="url(#75ca65fff1)"><g clip-path="url(#18898b2fef)"><g clip-path="url(#a7bd35d74f)"><path fill="#ff3131" d="M 47.238281 5.246094 C 47.40625 5.269531 47.574219 5.253906 47.738281 5.203125 C 47.902344 5.152344 48.046875 5.070312 48.175781 4.957031 C 48.304688 4.84375 48.402344 4.710938 48.472656 4.554688 C 48.546875 4.398438 48.582031 4.234375 48.582031 4.0625 C 48.585938 3.910156 48.558594 3.761719 48.503906 3.617188 C 48.449219 3.476562 48.367188 3.347656 48.261719 3.238281 C 48.15625 3.125 48.035156 3.039062 47.894531 2.976562 C 47.753906 2.910156 47.605469 2.878906 47.453125 2.871094 C 47.128906 2.859375 46.839844 2.957031 46.59375 3.167969 C 46.34375 3.375 46.195312 3.640625 46.152344 3.964844 C 46.140625 4.121094 46.160156 4.273438 46.207031 4.421875 C 46.257812 4.570312 46.332031 4.707031 46.433594 4.828125 C 46.535156 4.945312 46.65625 5.042969 46.792969 5.117188 C 46.933594 5.1875 47.082031 5.234375 47.238281 5.246094 Z M 47.238281 5.246094 " fill-opacity="1" fill-rule="nonzero"/></g></g></g><g clip-path="url(#5760c6f39c)"><g clip-path="url(#a99ad8def4)"><g clip-path="url(#9d3eac873f)"><path fill="#ff3131" d="M 23.703125 28.015625 C 23.644531 28.121094 23.871094 28.382812 23.96875 28.574219 L 24.191406 28.605469 C 24.359375 28.4375 24.632812 28.28125 24.65625 28.09375 C 24.679688 27.925781 24.425781 27.722656 24.292969 27.535156 C 24.085938 27.691406 23.816406 27.808594 23.703125 28.015625 Z M 23.703125 28.015625 " fill-opacity="1" fill-rule="nonzero"/></g></g></g><g clip-path="url(#9bc7f21a85)"><g clip-path="url(#3518336eb0)"><g clip-path="url(#b2d8c6401b)"><path fill="#ff3131" d="M 26.148438 30.042969 C 26.117188 29.855469 25.882812 29.699219 25.734375 29.53125 C 25.585938 29.679688 25.34375 29.808594 25.3125 29.976562 C 25.285156 30.128906 25.492188 30.324219 25.675781 30.636719 C 25.914062 30.351562 26.167969 30.175781 26.148438 30.042969 Z M 26.148438 30.042969 " fill-opacity="1" fill-rule="nonzero"/></g></g></g><g clip-path="url(#ef18f3fac6)"><g clip-path="url(#fc9aee1f7a)"><g clip-path="url(#5146ab70fe)"><path fill="#ff3131" d="M 25.558594 28.570312 C 25.800781 28.328125 26.082031 28.164062 26.0625 28.046875 C 26.007812 27.804688 25.871094 27.636719 25.652344 27.535156 C 25.527344 27.496094 25.179688 27.742188 25.167969 27.886719 C 25.148438 28.066406 25.371094 28.265625 25.558594 28.570312 Z M 25.558594 28.570312 " fill-opacity="1" fill-rule="nonzero"/></g></g></g><g clip-path="url(#cc4e2bced2)"><g clip-path="url(#9024af4441)"><g clip-path="url(#1b9a285d7c)"><path fill="#ff3131" d="M 119.824219 117.613281 C 119.695312 117.328125 119.75 117.082031 119.980469 116.875 C 120.914062 115.902344 121.886719 114.960938 122.738281 113.921875 C 124.039062 112.335938 125.257812 110.679688 126.5 109.046875 C 126.625 108.832031 126.726562 108.605469 126.796875 108.363281 C 126.742188 108.339844 126.6875 108.3125 126.628906 108.285156 C 126.539062 108.398438 126.449219 108.507812 126.363281 108.625 C 125.53125 109.769531 124.761719 110.964844 123.851562 112.042969 C 122.480469 113.664062 121.011719 115.195312 119.585938 116.769531 C 119.410156 116.960938 119.285156 117 119.050781 116.789062 C 118.761719 116.53125 118.433594 116.332031 118.070312 116.199219 C 115.421875 115.292969 112.699219 114.921875 109.90625 115.089844 C 109.25 115.144531 108.609375 115.269531 107.984375 115.472656 C 107.765625 115.535156 107.472656 115.816406 107.472656 116 C 107.515625 116.28125 107.660156 116.503906 107.894531 116.667969 C 108.214844 116.894531 108.558594 117.066406 108.933594 117.179688 C 111.683594 118.046875 114.496094 118.355469 117.371094 118.097656 C 117.632812 118.074219 117.894531 118.035156 118.15625 118 L 118.226562 118.113281 L 115.808594 120.402344 C 115.585938 120.242188 115.433594 120.109375 115.261719 120.007812 C 115.089844 119.902344 114.90625 119.816406 114.710938 119.757812 C 111.679688 118.964844 108.625 118.851562 105.542969 119.421875 C 105.140625 119.496094 104.761719 119.628906 104.402344 119.820312 C 104.191406 119.929688 103.921875 120.207031 103.933594 120.390625 C 104 120.671875 104.160156 120.878906 104.410156 121.019531 C 104.78125 121.226562 105.171875 121.375 105.585938 121.464844 C 108.351562 122.082031 111.132812 122.152344 113.925781 121.679688 C 114.027344 121.671875 114.128906 121.667969 114.234375 121.671875 C 113.566406 122.351562 112.859375 122.976562 112.101562 123.554688 C 112.003906 123.632812 111.765625 123.585938 111.609375 123.53125 C 111.160156 123.375 110.730469 123.089844 110.269531 123.03125 C 107.695312 122.742188 105.15625 122.929688 102.648438 123.597656 C 101.84375 123.835938 101.066406 124.152344 100.324219 124.546875 C 100.089844 124.691406 99.964844 124.902344 99.953125 125.175781 C 100.050781 125.433594 100.226562 125.609375 100.484375 125.703125 C 100.914062 125.859375 101.355469 125.957031 101.8125 125.996094 C 104.375 126.195312 106.894531 125.953125 109.371094 125.261719 C 109.535156 125.21875 109.703125 125.1875 109.945312 125.136719 C 109.875 125.273438 109.863281 125.332031 109.828125 125.355469 C 108.703125 126.1875 107.582031 127.019531 106.445312 127.835938 C 106.359375 127.898438 106.199219 127.863281 106.070312 127.867188 C 105.660156 127.882812 105.21875 127.796875 104.839844 127.917969 C 102.167969 128.800781 99.769531 130.164062 97.644531 132.007812 C 97.109375 132.476562 96.648438 133.007812 96.261719 133.601562 C 95.890625 134.144531 96.214844 134.613281 96.875 134.558594 C 97.296875 134.53125 97.710938 134.445312 98.109375 134.308594 C 100.667969 133.371094 102.964844 131.996094 105.003906 130.191406 C 105.511719 129.769531 105.925781 129.269531 106.253906 128.695312 C 106.425781 128.3125 106.679688 128.007812 107.027344 127.769531 C 107.28125 127.609375 107.523438 127.425781 107.777344 127.257812 C 108.148438 127 108.523438 126.746094 108.898438 126.496094 C 108.894531 126.667969 108.84375 126.824219 108.742188 126.964844 C 107.742188 128.496094 106.941406 130.125 106.34375 131.855469 C 106.136719 132.566406 105.996094 133.289062 105.921875 134.027344 C 105.914062 134.285156 106.015625 134.492188 106.226562 134.644531 C 106.488281 134.714844 106.734375 134.675781 106.964844 134.527344 C 107.304688 134.304688 107.605469 134.035156 107.863281 133.71875 C 109.660156 131.527344 110.96875 129.074219 111.789062 126.363281 C 111.941406 125.871094 112.117188 125.304688 112.011719 124.832031 C 111.878906 124.21875 112.128906 123.945312 112.535156 123.636719 C 113.109375 123.199219 113.664062 122.726562 114.226562 122.273438 C 114.21875 122.507812 114.160156 122.730469 114.050781 122.9375 C 113.140625 124.933594 112.535156 127.011719 112.230469 129.179688 C 112.15625 129.917969 112.152344 130.65625 112.222656 131.394531 C 112.269531 131.683594 112.421875 131.890625 112.683594 132.015625 C 112.894531 132.066406 113.214844 131.867188 113.40625 131.691406 C 113.664062 131.445312 113.878906 131.164062 114.042969 130.847656 C 115.476562 128.199219 116.292969 125.371094 116.492188 122.363281 C 116.523438 121.851562 116.3125 121.324219 116.222656 120.800781 C 116.207031 120.699219 116.175781 120.539062 116.226562 120.488281 C 116.773438 120 117.332031 119.527344 117.949219 119 C 117.90625 119.203125 117.890625 119.332031 117.855469 119.457031 C 117.285156 121.394531 116.988281 123.371094 116.96875 125.390625 C 117.007812 126.398438 117.121094 127.394531 117.316406 128.382812 C 117.394531 128.636719 117.558594 128.796875 117.8125 128.867188 C 118.085938 128.851562 118.300781 128.734375 118.464844 128.515625 C 118.722656 128.136719 118.929688 127.734375 119.078125 127.300781 C 119.898438 124.898438 120.269531 122.429688 120.191406 119.890625 C 120.160156 119.117188 120.039062 118.359375 119.824219 117.613281 Z M 119.824219 117.613281 " fill-opacity="1" fill-rule="nonzero"/></g></g></g><g clip-path="url(#d602e69efc)"><g clip-path="url(#db236efde9)"><g clip-path="url(#583224052c)"><path fill="#ff3131" d="M 130.929688 97.535156 C 131.804688 97 132.488281 96.261719 132.6875 95.230469 C 132.886719 94.242188 133 93.246094 133.027344 92.238281 C 133.050781 90.933594 132.9375 89.625 132.878906 88.230469 C 132.609375 88.347656 132.34375 88.476562 132.089844 88.625 C 130.347656 89.773438 129.28125 91.449219 128.464844 93.3125 C 128.097656 94.148438 127.949219 95.019531 128.023438 95.925781 C 128.035156 96.273438 128.128906 96.59375 128.304688 96.890625 C 128.484375 97.1875 128.722656 97.421875 129.023438 97.59375 C 129.164062 95.394531 130.132812 93.660156 131.351562 92.03125 C 130.898438 93.949219 130.058594 95.757812 129.78125 97.917969 C 130.175781 97.832031 130.558594 97.703125 130.929688 97.535156 Z M 130.929688 97.535156 " fill-opacity="1" fill-rule="nonzero"/></g></g></g><g clip-path="url(#81138f6af1)"><g clip-path="url(#a8caf8486d)"><g clip-path="url(#598fb928bd)"><path fill="#ff3131" d="M 128.054688 113.375 C 127.777344 113.09375 127.476562 112.835938 127.152344 112.609375 C 126.707031 114.578125 126.820312 116.414062 126.613281 118.214844 L 126.484375 118.226562 C 126.410156 117.875 126.335938 117.527344 126.265625 117.175781 C 125.914062 115.632812 125.964844 114.105469 126.421875 112.59375 C 126.078125 112.746094 125.8125 112.785156 125.6875 112.9375 C 125.351562 113.347656 124.9375 113.765625 124.804688 114.246094 C 124.082031 116.917969 124.664062 119.371094 126.210938 121.621094 C 126.339844 121.773438 126.484375 121.90625 126.644531 122.023438 C 126.980469 121.21875 127.300781 120.464844 127.613281 119.710938 C 127.929688 118.949219 128.296875 118.203125 128.535156 117.417969 C 128.953125 116.015625 129.039062 114.613281 128.054688 113.375 Z M 128.054688 113.375 " fill-opacity="1" fill-rule="nonzero"/></g></g></g><g clip-path="url(#cf1dc61576)"><g clip-path="url(#fee4c3de85)"><g clip-path="url(#5bf9d0a808)"><path fill="#ff3131" d="M 134.507812 116.058594 C 133.164062 114.820312 132.039062 113.433594 131.53125 111.53125 C 131.253906 111.773438 131.066406 112.074219 130.964844 112.425781 C 130.863281 112.78125 130.871094 113.136719 130.980469 113.488281 C 131.648438 116.011719 133.324219 117.703125 135.582031 118.878906 C 135.882812 119.003906 136.199219 119.101562 136.519531 119.164062 C 136.382812 118.332031 136.265625 117.589844 136.136719 116.847656 C 136.007812 115.898438 135.832031 114.960938 135.609375 114.03125 C 135.257812 112.792969 134.574219 111.769531 133.292969 111.273438 C 132.929688 111.070312 132.5625 111.074219 132.199219 111.277344 C 132.777344 112.980469 133.808594 114.4375 134.507812 116.058594 Z M 134.507812 116.058594 " fill-opacity="1" fill-rule="nonzero"/></g></g></g><g clip-path="url(#3852e6fac0)"><g clip-path="url(#5bb2f0d900)"><g clip-path="url(#14c4bc88c4)"><path fill="#ff3131" d="M 129.839844 104.917969 L 133.875 107.355469 C 132.34375 107.132812 131.011719 106.464844 129.726562 105.65625 C 130.273438 107.109375 130.910156 108.488281 132.230469 109.367188 C 132.722656 109.65625 133.246094 109.851562 133.808594 109.949219 C 134.34375 110.066406 134.738281 109.765625 134.996094 109.285156 C 135.097656 109.074219 135.230469 108.882812 135.390625 108.710938 C 135.585938 108.542969 135.71875 108.332031 135.789062 108.082031 C 135.859375 107.832031 135.855469 107.585938 135.78125 107.335938 C 135.609375 106.730469 135.273438 106.242188 134.765625 105.871094 C 133.65625 104.988281 132.292969 104.988281 130.984375 104.8125 C 130.628906 104.761719 130.265625 104.757812 129.90625 104.734375 Z M 129.839844 104.917969 " fill-opacity="1" fill-rule="nonzero"/></g></g></g><g clip-path="url(#ab32bb0d56)"><g clip-path="url(#c72e0e49f9)"><g clip-path="url(#4eb3d0891b)"><path fill="#ff3131" d="M 128.058594 103.539062 C 128.015625 102.886719 127.960938 102.339844 127.949219 101.789062 C 127.9375 101.320312 128.027344 100.84375 127.980469 100.378906 C 127.890625 99.539062 127.910156 98.652344 127.148438 98.035156 C 126.679688 97.65625 126.328125 97.609375 125.824219 97.902344 C 125.660156 97.992188 125.488281 98.042969 125.304688 98.058594 C 125.007812 98.0625 124.742188 98.15625 124.511719 98.34375 C 124.277344 98.527344 124.125 98.765625 124.058594 99.054688 C 123.914062 99.507812 123.855469 99.972656 123.882812 100.449219 C 123.910156 100.925781 124.019531 101.378906 124.21875 101.8125 C 124.414062 102.246094 124.683594 102.628906 125.019531 102.964844 C 125.359375 103.300781 125.746094 103.5625 126.183594 103.753906 C 126.554688 103.890625 126.933594 104.007812 127.320312 104.097656 L 127.375 103.957031 C 126.210938 102.839844 125.492188 101.484375 125.21875 99.894531 C 126.359375 100.917969 127.152344 102.214844 128.058594 103.539062 Z M 128.058594 103.539062 " fill-opacity="1" fill-rule="nonzero"/></g></g></g><g clip-path="url(#acc774b264)"><g clip-path="url(#d842773b4e)"><g clip-path="url(#27cdcb7738)"><path fill="#ff3131" d="M 120.835938 103.84375 C 120.828125 104.125 120.769531 104.394531 120.648438 104.652344 C 120.398438 105.222656 120.445312 105.652344 120.902344 106.070312 C 121.089844 106.242188 121.292969 106.386719 121.519531 106.503906 C 123.167969 107.339844 124.765625 107.121094 126.320312 106.230469 C 126.457031 106.125 126.585938 106.011719 126.703125 105.882812 C 125.0625 106.074219 123.472656 105.886719 121.921875 105.320312 L 121.933594 105.144531 C 123.519531 105.167969 125.109375 105.195312 126.699219 105.21875 L 126.714844 105.085938 C 126.667969 105.050781 126.621094 105.019531 126.570312 104.992188 C 125.699219 104.554688 124.839844 104.097656 123.957031 103.695312 C 123.28125 103.371094 122.578125 103.105469 121.855469 102.90625 C 121.207031 102.75 120.828125 103.1875 120.835938 103.84375 Z M 120.835938 103.84375 " fill-opacity="1" fill-rule="nonzero"/></g></g></g><g clip-path="url(#a27194bff2)"><g clip-path="url(#2d425d845e)"><g clip-path="url(#2caac2e3af)"><path fill="#ff3131" d="M 128.976562 106.441406 L 128.683594 110.898438 C 128.234375 109.425781 128.136719 107.929688 128.382812 106.410156 C 127.949219 106.925781 127.566406 107.476562 127.230469 108.0625 C 126.757812 108.929688 126.273438 109.808594 126.289062 110.847656 C 126.296875 111.773438 126.605469 112.09375 127.503906 112.148438 C 127.652344 112.160156 127.800781 112.191406 127.941406 112.242188 C 128.921875 112.597656 129.613281 112.285156 129.933594 111.273438 C 130.273438 110.152344 130.191406 109.058594 129.695312 107.996094 C 129.476562 107.496094 129.238281 107.003906 128.976562 106.441406 Z M 128.976562 106.441406 " fill-opacity="1" fill-rule="nonzero"/></g></g></g><g clip-path="url(#030ef2be6c)"><g clip-path="url(#329937d2f1)"><g clip-path="url(#58b28aae87)"><path fill="#ff3131" d="M 127.71875 104.730469 C 127.632812 104.875 127.585938 105.03125 127.589844 105.203125 C 127.609375 105.394531 127.574219 105.574219 127.472656 105.738281 C 127.375 105.902344 127.234375 106.019531 127.058594 106.089844 C 126.242188 106.488281 125.441406 106.914062 124.601562 107.25 C 123.375 107.699219 122.105469 107.929688 120.796875 107.941406 C 120.636719 107.945312 120.507812 107.882812 120.40625 107.757812 C 120.039062 107.03125 120.046875 107.023438 119.273438 107.171875 C 118.960938 107.234375 118.304688 108.164062 118.472656 108.386719 C 118.691406 108.683594 119.03125 109.027344 119.359375 109.074219 C 120.203125 109.199219 120.210938 109.140625 120.527344 108.375 C 120.605469 108.363281 120.683594 108.359375 120.765625 108.363281 C 122.722656 108.53125 124.585938 108.1875 126.351562 107.328125 C 127.316406 106.882812 128.246094 106.359375 128.878906 105.457031 C 129.199219 105.007812 129.132812 104.550781 128.753906 104.3125 C 128.410156 104.089844 127.988281 104.25 127.71875 104.730469 Z M 127.71875 104.730469 " fill-opacity="1" fill-rule="nonzero"/></g></g></g><g clip-path="url(#c606131715)"><g clip-path="url(#665cc1b7f0)"><g clip-path="url(#e91e673ec0)"><path fill="#ff3131" d="M 101.027344 135.257812 C 101.015625 135.414062 101.035156 135.570312 101.082031 135.71875 C 101.132812 135.867188 101.210938 136 101.3125 136.117188 C 101.414062 136.238281 101.535156 136.332031 101.675781 136.402344 C 101.816406 136.472656 101.964844 136.515625 102.121094 136.527344 C 102.457031 136.535156 102.75 136.429688 103.003906 136.210938 C 103.257812 135.992188 103.402344 135.71875 103.445312 135.390625 C 103.453125 135.074219 103.355469 134.792969 103.148438 134.554688 C 102.945312 134.316406 102.6875 134.171875 102.371094 134.132812 C 102.207031 134.109375 102.046875 134.125 101.886719 134.171875 C 101.726562 134.21875 101.582031 134.296875 101.453125 134.402344 C 101.328125 134.507812 101.226562 134.636719 101.152344 134.785156 C 101.078125 134.933594 101.035156 135.09375 101.027344 135.257812 Z M 101.027344 135.257812 " fill-opacity="1" fill-rule="nonzero"/></g></g></g><g clip-path="url(#13104e0f23)"><g clip-path="url(#bb363cbc62)"><g clip-path="url(#bde9023252)"><path fill="#ff3131" d="M 97.152344 126.902344 C 96.992188 126.882812 96.835938 126.890625 96.679688 126.933594 C 96.523438 126.976562 96.382812 127.046875 96.257812 127.144531 C 96.132812 127.242188 96.027344 127.359375 95.949219 127.5 C 95.871094 127.640625 95.820312 127.789062 95.800781 127.949219 C 95.78125 128.105469 95.792969 128.265625 95.835938 128.417969 C 95.878906 128.574219 95.949219 128.714844 96.046875 128.839844 C 96.148438 128.964844 96.265625 129.066406 96.40625 129.144531 C 96.546875 129.222656 96.695312 129.273438 96.855469 129.292969 C 97.015625 129.300781 97.171875 129.285156 97.328125 129.234375 C 97.480469 129.1875 97.621094 129.113281 97.746094 129.011719 C 97.871094 128.910156 97.976562 128.792969 98.054688 128.652344 C 98.136719 128.511719 98.1875 128.363281 98.214844 128.203125 C 98.226562 128.046875 98.210938 127.894531 98.167969 127.746094 C 98.121094 127.59375 98.046875 127.457031 97.949219 127.335938 C 97.847656 127.214844 97.730469 127.117188 97.59375 127.042969 C 97.453125 126.964844 97.308594 126.917969 97.152344 126.902344 Z M 97.152344 126.902344 " fill-opacity="1" fill-rule="nonzero"/></g></g></g><g clip-path="url(#1a6f519155)"><g clip-path="url(#8225c36cc1)"><g clip-path="url(#fbcbe3548a)"><path fill="#ff3131" d="M 122.683594 109.519531 C 122.902344 109.523438 123.125 109.308594 123.5 109.105469 C 123.199219 108.84375 123.015625 108.578125 122.894531 108.605469 C 122.660156 108.703125 122.449219 108.839844 122.261719 109.019531 C 122.402344 109.199219 122.539062 109.519531 122.683594 109.519531 Z M 122.683594 109.519531 " fill-opacity="1" fill-rule="nonzero"/></g></g></g><g clip-path="url(#0f5b225bea)"><g clip-path="url(#1d0ad58448)"><g clip-path="url(#3c282c63e6)"><path fill="#ff3131" d="M 120.902344 109.234375 C 120.984375 109.464844 121.140625 109.621094 121.371094 109.707031 C 121.472656 109.734375 121.777344 109.449219 121.792969 109.285156 C 121.808594 109.125 121.566406 108.945312 121.359375 108.671875 C 121.144531 108.925781 120.871094 109.121094 120.902344 109.234375 Z M 120.902344 109.234375 " fill-opacity="1" fill-rule="nonzero"/></g></g></g><g clip-path="url(#5fe07be7a6)"><g clip-path="url(#bd58cdbcc1)"><g clip-path="url(#c33588ac37)"><path fill="#ff3131" d="M 120.574219 107.273438 C 120.726562 107.421875 120.867188 107.667969 121.035156 107.6875 C 121.183594 107.707031 121.367188 107.476562 121.652344 107.269531 C 121.378906 107.054688 121.191406 106.816406 121.082031 106.847656 C 120.886719 106.902344 120.738281 107.125 120.574219 107.273438 Z M 120.574219 107.273438 " fill-opacity="1" fill-rule="nonzero"/></g></g></g><g fill="#ff3131" fill-opacity="1"><g transform="translate(42.136661, 125.455991)"><g><path d="M 45.03125 -23.128906 C 45.492188 -23.972656 45.949219 -24.8125 46.332031 -25.65625 C 52.539062 -38.0625 59.890625 -44.496094 64.023438 -47.328125 C 71.070312 -46.105469 77.65625 -45.492188 84.550781 -48.09375 C 93.894531 -51.617188 88.839844 -59.8125 85.46875 -57.976562 C 85.46875 -57.976562 85.316406 -53.761719 80.566406 -51.769531 C 73.136719 -48.707031 60.960938 -50.777344 53.6875 -52.460938 C 47.328125 -53.992188 35.304688 -57.4375 25.960938 -50.394531 C 16.617188 -43.347656 16.390625 -30.941406 30.480469 -29.636719 C 30.480469 -29.636719 23.589844 -33.238281 26.652344 -40.972656 C 29.253906 -47.710938 37.984375 -50.238281 46.640625 -49.78125 C 50.851562 -49.550781 54.835938 -48.9375 58.742188 -48.25 C 49.550781 -44.878906 43.195312 -34.386719 37.449219 -24.199219 C 31.476562 -23.816406 27.492188 -20.523438 25.808594 -18.992188 C 25.808594 -19.683594 25.734375 -20.449219 25.578125 -21.214844 C 24.8125 -24.277344 20.21875 -28.566406 12.253906 -27.492188 C -0.996094 -25.65625 -5.132812 -3.753906 8.042969 1.761719 C 24.125 8.5 35.457031 -5.742188 43.039062 -19.375 C 46.714844 -18.152344 50.699219 -16.542969 56.671875 -16.847656 C 62.800781 -17.078125 63.335938 -21.980469 61.574219 -23.894531 C 58.050781 -20.601562 50.851562 -21.980469 45.03125 -23.128906 Z M 22.824219 -3.292969 C 15.164062 2.296875 9.648438 0.304688 7.582031 -6.050781 C 5.742188 -11.5625 9.726562 -19.453125 16.464844 -19.757812 C 23.207031 -19.988281 22.285156 -13.707031 22.285156 -13.707031 C 24.738281 -14.398438 26.117188 -19.453125 33.773438 -20.679688 C 34.386719 -20.753906 35 -20.832031 35.535156 -20.832031 C 31.398438 -13.480469 27.492188 -6.664062 22.824219 -3.292969 Z M 22.824219 -3.292969 "/></g></g></g><g fill="#ff3131" fill-opacity="1"><g transform="translate(110.972005, 125.455991)"><g/></g></g><g fill="#ff3131" fill-opacity="1"><g transform="translate(16.569503, 71.640534)"><g><path d="M 48.695312 -49.113281 C 34.199219 -56.117188 13.734375 -44.257812 5.410156 -24.140625 C -1.316406 -7.976562 3.816406 16.785156 28.511719 16.785156 C 43.492188 16.785156 48.417969 3.953125 38.914062 1.457031 C 40.164062 5.894531 36.140625 12.902344 29.132812 13.179688 C 9.503906 13.941406 9.296875 -8.949219 11.167969 -16.996094 C 15.054688 -33.433594 24.832031 -40.996094 32.742188 -45.160156 C 48.558594 -53.550781 53.96875 -35.378906 43.839844 -35.378906 C 36.835938 -35.378906 37.25 -42.3125 37.25 -42.3125 C 34.683594 -40.925781 33.019531 -37.527344 33.710938 -34.683594 C 34.824219 -30.105469 42.3125 -26.777344 47.863281 -29.480469 C 58.0625 -34.613281 56.257812 -45.503906 48.695312 -49.113281 Z M 48.695312 -49.113281 "/></g></g></g><g fill="#ff3131" fill-opacity="1"><g transform="translate(71.057696, 63.223903)"><g><path d="M 27.527344 -24.566406 C 29.980469 -21.144531 27.375 -16.597656 21.550781 -16.089844 C 17.824219 -15.832031 15.066406 -15.933594 13.277344 -13.839844 C 11.644531 -12.003906 12.871094 -8.683594 16.191406 -10.011719 C 14.148438 -10.929688 16.035156 -13.738281 17.925781 -13.484375 C 19.203125 -13.328125 19.816406 -11.03125 18.4375 -8.9375 C 15.578125 -4.546875 8.988281 -2.402344 5.3125 -4.390625 C 3.472656 -5.414062 3.269531 -9.089844 5.515625 -12.921875 C 6.894531 -15.21875 9.960938 -17.976562 13.585938 -18.4375 C 15.269531 -18.691406 17.519531 -18.539062 18.742188 -17.570312 C 19 -18.4375 17.570312 -19.714844 15.984375 -19.867188 L 15.117188 -19.96875 C 12.871094 -20.632812 12.105469 -23.699219 13.636719 -26.660156 C 15.167969 -29.570312 18.488281 -31.972656 20.683594 -31.820312 C 23.800781 -31.613281 22.984375 -27.375 22.0625 -25.382812 C 21.09375 -23.238281 18.792969 -21.246094 15.425781 -22.011719 C 15.628906 -20.429688 20.019531 -19.253906 22.675781 -21.347656 C 24.769531 -23.035156 25.945312 -25.128906 26.199219 -27.375 C 26.558594 -30.695312 24.617188 -32.636719 21.550781 -33.144531 C 18.285156 -33.707031 12.871094 -31.664062 10.265625 -27.425781 C 8.222656 -24.15625 9.601562 -20.632812 12.105469 -19.714844 C 6.332031 -18.742188 1.074219 -14.402344 0.101562 -9.140625 C -0.5625 -5.515625 2.09375 -2.347656 7.917969 -2.144531 C 12.921875 -1.941406 19.304688 -3.523438 22.011719 -8.476562 C 22.726562 -9.855469 24.054688 -13.789062 21.65625 -14.761719 C 25.28125 -14.914062 28.804688 -15.066406 30.59375 -17.261719 C 33.042969 -20.328125 30.847656 -25.078125 27.527344 -24.566406 Z M 27.527344 -24.566406 "/></g></g></g></svg>